<svg id="レイヤー_1" data-name="レイヤー 1" xmlns="http://www.w3.org/2000/svg" viewBox="0 0 200 200"><defs><style>.cls-1{fill:transparent;}.cls-2,.cls-3{fill:#fff;}.cls-2{fill-rule:evenodd;}</style></defs><title>NewsPicks Icon</title><rect class="cls-1" width="200" height="200" rx="24.41"/><polygon class="cls-2" points="151.06 89.25 126.24 120.49 135.67 120.49 156.14 94.68 151.06 89.25"/><polygon class="cls-2" points="49.16 94.23 54.8 98.71 39.07 103.19 59.28 103.19 103.67 159.11 115.11 159.11 63.61 94.23 49.16 94.23"/><polygon class="cls-2" points="51.25 107.48 36.8 107.48 42.44 111.95 26.71 116.43 46.93 116.43 80.8 159.11 92.24 159.11 51.25 107.48"/><polygon class="cls-2" points="84.04 76.75 107.32 106.08 134.62 71.7 128.43 65.09 107.32 91.68 88.36 67.8 73.91 67.8 79.55 72.28 63.82 76.75 84.04 76.75"/><polygon class="cls-2" points="107.32 120.49 75.96 80.98 61.51 80.98 67.15 85.46 51.42 89.94 71.69 89.94 107.32 134.89 107.32 120.49"/><polygon class="cls-2" points="151.04 89.24 140.8 78.3 107.32 120.49 118.74 120.49 143.51 89.24 151.04 89.24"/><path class="cls-2" d="M169,108.44l-9.19-9.81-3.11,10.83,3.4,3.63-19,7.55,6.93,7.4a5.66,5.66,0,0,0,8,.26l12.68-11.87A5.66,5.66,0,0,0,169,108.44Z"/><path class="cls-3" d="M101.94,40.54l-7.53,7.74,2.12,14.46,10.79,13.59,9.4-11.83ZM100.46,61l-1-6.54,3.79-3.89,8.38,13.59-4.35,5.48Z"/></svg>