<svg id="newspicks_icon" data-name="NewsPicks Icon" xmlns="http://www.w3.org/2000/svg" viewBox="0 0 200 200"><rect width="200" height="200" rx="24.41" fill="transparent"/><path d="M151.06 89.25l-24.82 31.24h9.43l20.47-25.81-5.08-5.43zM49.16 94.23l5.64 4.48-15.73 4.48h20.21l44.39 55.92h11.44l-51.5-64.88H49.16z"/><path d="M51.25 107.48H36.8l5.64 4.47-15.73 4.48h20.22l33.87 42.68h11.44l-40.99-51.63zM84.04 76.75l23.28 29.33 27.3-34.38-6.19-6.61-21.11 26.59L88.36 67.8H73.91l5.64 4.48-15.73 4.47h20.22z"/><path d="M107.32 120.49L75.96 80.98H61.51l5.64 4.48-15.73 4.48h20.27l35.63 44.95v-14.4zM151.04 89.24L140.8 78.3l-33.48 42.19h11.42l24.77-31.25h7.53zM169 108.44l-9.19-9.81-3.11 10.83 3.4 3.63-19 7.55 6.93 7.4a5.66 5.66 0 008 .26l12.68-11.87a5.66 5.66 0 00.29-7.99z"/><path d="M101.94 40.54l-7.53 7.74 2.12 14.46 10.79 13.59 9.4-11.83zM100.46 61l-1-6.54 3.79-3.89 8.38 13.59-4.35 5.48z"/></svg>
